<svg width="50" height="50" viewBox="0 0 54 65" fill="none" xmlns="http://www.w3.org/2000/svg">
<path d="M53.9328 16.7294C53.8927 14.9641 53.8726 13.3206 53.8726 11.7177C53.8726 10.4597 52.8691 9.44514 51.6248 9.44514C41.9916 9.44514 34.6664 6.64508 28.5654 0.639145C27.6823 -0.213048 26.2976 -0.213048 25.4346 0.639145C19.3335 6.64508 11.9882 9.44514 2.3751 9.44514C1.13082 9.44514 0.127358 10.4597 0.127358 11.7177C0.127358 13.3206 0.0872201 14.9844 0.0671509 16.7294C-0.233887 33.0631 -0.65534 55.4433 26.2775 64.8783C26.5183 64.9594 26.7591 65 27.02 65C27.2809 65 27.5218 64.9594 27.7626 64.8783C54.6553 55.4433 54.2338 33.0631 53.9328 16.7294ZM26.9799 60.3129C3.88029 51.8316 4.22147 33.2457 4.52251 16.8105C4.54258 15.8163 4.56264 14.8626 4.56264 13.9293C13.5938 13.5438 20.7986 10.7843 26.9799 5.3465C33.1612 10.7843 40.366 13.5438 49.3771 13.9293C49.3972 14.8626 49.4172 15.8163 49.4172 16.8105C49.7383 33.2457 50.0795 51.8316 26.9799 60.3129Z" fill="#C4C4C4"/>
<path d="M34.7269 24.5817L23.8695 35.5588L19.2335 30.8717C18.3505 29.979 16.9256 29.979 16.0425 30.8717C15.1595 31.7645 15.1595 33.2051 16.0425 34.0979L22.264 40.3879C22.7055 40.8343 23.2875 41.0575 23.8494 41.0575C24.4114 41.0575 24.9934 40.8343 25.4349 40.3879L37.8978 27.7876C38.7809 26.8948 38.7809 25.4542 37.8978 24.5614C37.0349 23.7093 35.61 23.7093 34.7269 24.5817Z" fill="#C4C4C4"/>
</svg>
