<svg width="50" height="50" viewBox="0 0 52 60" fill="none" xmlns="http://www.w3.org/2000/svg">
<path d="M42.3899 60C28.8442 60 15.3175 60 1.7718 60C1.42887 59.8315 1.06689 59.7004 0.762066 59.4757C0.171465 59.0262 0 58.3708 0 57.6404C0 39.1948 0 20.7678 0 2.3221C0 2.20974 0 2.09738 0 1.98502C0.0952582 1.1985 0.476291 0.599251 1.20025 0.224719C1.37172 0.131086 1.58129 0.0749064 1.7718 0C17.9276 0 34.0834 0 50.2392 0C50.2582 0.0187266 50.2582 0.0374531 50.2773 0.0374531C51.4585 0.411985 51.9919 1.10487 51.9919 2.3221C51.9919 6.85393 51.9919 11.4045 51.9919 15.9363C51.9919 17.3221 51.0965 18.1835 49.7057 18.1835C47.9911 18.1835 46.2574 18.1835 44.5427 18.1835C44.4284 18.1835 44.3332 18.1835 44.1998 18.1835C44.1998 18.3708 44.1998 18.5206 44.1998 18.6517C44.1998 31.5918 44.1998 44.5506 44.1998 57.4906C44.1998 57.6217 44.1998 57.7528 44.1998 57.8839C44.1427 58.9139 43.533 59.6816 42.5233 59.9438C42.4661 59.9626 42.428 59.9813 42.3899 60ZM4.26757 55.7116C16.1748 55.7116 28.044 55.7116 39.9513 55.7116C39.9513 55.5431 39.9513 55.412 39.9513 55.2622C39.9513 42.2472 39.9513 29.2322 39.9513 16.236C39.9513 14.7753 40.8277 13.9139 42.2756 13.9139C43.9712 13.9139 45.6858 13.9139 47.3814 13.9139C47.4957 13.9139 47.6101 13.9139 47.7244 13.9139C47.7244 10.6742 47.7244 7.49064 47.7244 4.30712C33.2261 4.30712 18.7468 4.30712 4.26757 4.30712C4.26757 21.4419 4.26757 38.5581 4.26757 55.7116Z" fill="#C4C4C4"/>
<path d="M46.1236 60C46.1236 54.0824 46.1236 48.1648 46.1236 42.2472C46.1236 42.1161 46.1236 41.985 46.1236 41.8352C46.1808 41.8165 46.2189 41.7977 46.257 41.7977C47.4953 41.7977 48.7337 41.779 49.9721 41.7977C51.0199 41.8165 51.9153 42.6966 51.9915 43.7266C52.0106 43.8764 51.9915 44.0262 51.9915 44.1947C51.9915 48.5955 51.9915 52.9962 51.9915 57.397C51.9915 58.9138 51.6486 59.4195 50.2388 59.9813C48.8671 60 47.4953 60 46.1236 60Z" fill="#C4C4C4"/>
<path d="M46.1432 21.367C46.9814 21.367 47.8006 21.367 48.6199 21.367C49.039 21.367 49.4581 21.367 49.8582 21.367C51.0204 21.3858 51.9539 22.2659 51.973 23.427C51.992 24.4007 51.973 25.3558 51.973 26.3296C51.973 29.7004 51.973 33.0711 51.973 36.4232C51.973 37.5468 51.2871 38.3895 50.2202 38.5955C50.1821 38.5955 50.144 38.6142 50.1059 38.6142C48.7913 38.6142 47.4768 38.6142 46.1432 38.6142C46.1432 32.8839 46.1432 27.1348 46.1432 21.367Z" fill="#C4C4C4"/>
<path d="M22.0805 33.9326C18.4226 33.9326 14.7646 33.9326 11.1258 33.9326C10.4971 33.9326 10.3828 33.8202 10.3828 33.2023C10.3828 32.7154 10.3637 32.2472 10.4018 31.7603C10.4209 31.5731 10.4971 31.3483 10.6304 31.2173C12.7833 29.1386 15.279 27.6967 18.213 26.9476C18.5178 26.8727 18.7845 26.9101 19.0894 27.0412C21.0898 27.9214 23.1093 27.9214 25.1097 27.06C25.4717 26.9101 25.8146 26.8727 26.1956 26.985C29.0153 27.7341 31.4348 29.1386 33.5496 31.1049C33.7782 31.3296 33.8925 31.5731 33.8925 31.8914C33.8734 32.3221 33.8925 32.7528 33.8925 33.1835C33.8925 33.8015 33.7591 33.9326 33.1114 33.9326C29.3963 33.9326 25.7384 33.9326 22.0805 33.9326Z" fill="#C4C4C4"/>
<path d="M17.451 19.7565C16.9747 19.6816 16.689 19.4569 16.5746 19.0262C16.4603 18.5955 16.6127 18.2584 16.9366 17.9588C17.0128 17.9026 17.0128 17.7154 16.9938 17.603C16.5746 15.9363 16.7842 14.3446 17.7177 12.9026C18.7846 11.2359 20.3278 10.3183 22.3663 10.4307C24.4049 10.5431 25.8337 11.6292 26.7292 13.3708C27.4341 14.7191 27.5484 16.161 27.1483 17.6217C27.0912 17.809 27.1102 17.9026 27.2626 18.0337C27.5674 18.2771 27.6627 18.633 27.5674 19.0075C27.4912 19.382 27.2626 19.6629 26.8625 19.7378C26.672 19.7753 26.672 19.8689 26.653 20.0187C26.4243 21.5918 25.7575 22.9401 24.5001 23.97C22.9379 25.2434 21.0137 25.1873 19.4895 23.8764C18.2893 22.8277 17.6606 21.5168 17.451 19.9625C17.4701 19.8876 17.4701 19.8315 17.451 19.7565Z" fill="#C4C4C4"/>
<path d="M10.3259 42.2472C10.0782 42.2472 9.92583 42.2472 9.77341 42.2097C8.93514 42.0599 8.38265 41.3483 8.4398 40.5243C8.49695 39.7191 9.14471 39.1011 9.98298 39.0449H34.0452C35.0359 39.0449 35.7408 39.6816 35.7789 40.5805C35.817 41.4045 35.2264 42.0974 34.3881 42.2285C34.2548 42.2472 34.1214 42.2472 33.988 42.2472H24.1574C24.1383 42.2472 10.3259 42.2472 10.3259 42.2472Z" fill="#C4C4C4"/>
<path d="M22.0808 39.794C26.0626 39.794 30.0444 39.794 34.0262 39.794C34.6168 39.794 34.9788 40.1124 34.9978 40.5993C35.0169 41.0487 34.7121 41.4045 34.2548 41.4794C34.1215 41.4981 33.9881 41.4981 33.8547 41.4981C26.0055 41.4981 18.1752 41.4981 10.326 41.4981C10.1735 41.4981 10.0402 41.4981 9.88777 41.4794C9.44958 41.4045 9.14476 41.03 9.18286 40.5805C9.22096 40.1498 9.54484 39.8315 10.0021 39.8127C10.1164 39.8127 10.2307 39.8127 10.345 39.8127C14.2506 39.794 18.1752 39.794 22.0808 39.794Z" fill="#C4C4C4"/>
<path d="M10.1925 50.5992C9.12556 50.5992 8.68738 50.0187 8.51591 49.5131C8.3635 49.0824 8.4016 48.5955 8.63022 48.2022C8.85884 47.809 9.25892 47.5281 9.71616 47.4344C9.90668 47.397 10.0972 47.397 10.2877 47.397H33.8737C34.1213 47.397 34.2737 47.397 34.4262 47.4344C35.2644 47.5843 35.8169 48.2959 35.7598 49.1386C35.7026 49.9438 35.0549 50.5618 34.2356 50.618H10.1925V50.5992Z" fill="#C4C4C4"/>
<path d="M22.1188 49.8502C18.137 49.8502 14.1742 49.8502 10.1924 49.8502C9.67805 49.8502 9.37323 49.6817 9.23987 49.2697C9.0684 48.7828 9.35418 48.2584 9.86857 48.1648C10.021 48.1274 10.1734 48.1274 10.3258 48.1274C18.1751 48.1274 26.0053 48.1274 33.8546 48.1274C34.007 48.1274 34.1404 48.1274 34.2928 48.1461C34.75 48.221 35.0358 48.5955 34.9977 49.045C34.9596 49.4757 34.6357 49.794 34.1975 49.8315C34.0832 49.8315 33.9689 49.8315 33.8546 49.8315C29.93 49.8502 26.0244 49.8502 22.1188 49.8502Z" fill="#C4C4C4"/>
</svg>
