<svg width="55" height="55" viewBox="0 0 74 68" fill="none" xmlns="http://www.w3.org/2000/svg">
<path d="M74 39.6812C74 29.9357 65.3795 21.4794 53.3504 19.2506C52.2068 8.52185 40.7055 0 26.7192 0C11.9851 0 0 9.39589 0 20.955C0.0439822 26.8766 3.10074 32.383 8.48856 36.2943L6.68529 46.2802C6.50936 47.2853 6.9052 48.2686 7.74086 48.8368C8.18068 49.1864 8.75245 49.3175 9.28024 49.3175C9.72006 49.3175 10.1599 49.2301 10.5117 49.0116L21.0015 43.3959C23.2666 53.1851 34.2181 60.6144 47.3028 60.6144C48.2264 60.6144 49.1501 60.5707 50.0517 60.4833L63.5762 67.6941C63.9721 67.9126 64.4119 68 64.8077 68C65.3355 68 65.9073 67.8252 66.3471 67.5193C67.1828 66.9511 67.5786 65.946 67.4027 64.9627L65.5994 54.9769C70.9432 51.0218 74 45.5373 74 39.6812ZM22.211 36.8406L12.7548 41.8882L13.8984 35.5514C14.0743 34.5026 13.6345 33.4756 12.7108 32.9075C7.93878 29.9139 5.23388 25.5656 5.23388 20.9987C5.27786 12.3458 14.91 5.26607 26.7631 5.26607C38.6163 5.26607 48.2484 12.3021 48.2484 20.9987C48.2484 29.6954 38.6163 36.7314 26.7631 36.7314C25.7955 36.7314 24.74 36.6877 23.7504 36.5566C23.2006 36.491 22.6948 36.5784 22.211 36.8406ZM61.3111 51.59C60.4315 52.1581 59.9477 53.2069 60.1236 54.2339L61.2672 60.5707L51.811 55.5231C51.3272 55.2609 50.7994 55.1735 50.2716 55.2172C49.26 55.3046 48.2264 55.392 47.2588 55.392C36.4612 55.392 27.4889 49.5141 25.9935 41.91H26.6972C39.9138 41.91 50.8874 34.3496 53.0425 24.473C62.2787 26.3959 68.7881 32.6015 68.7881 39.6375C68.7881 44.2262 66.0832 48.5745 61.3111 51.59Z" fill="#7BBE4D"/>
</svg>
