<?xml version="1.0" encoding="utf-8"?>
<!-- Generator: Adobe Illustrator 23.0.1, SVG Export Plug-In . SVG Version: 6.00 Build 0)  -->
<svg width="55" height="55" version="1.1" id="Layer_1" xmlns="http://www.w3.org/2000/svg" xmlns:xlink="http://www.w3.org/1999/xlink" x="0px" y="0px"
	 viewBox="0 0 51 64" style="enable-background:new 0 0 51 64;" xml:space="preserve">
<style type="text/css">
	.st0{fill:#7BBE4D;}
</style>
<path class="st0" d="M44.9,64c-1.7,0-7.8,0-14.8,0H6c-3,0-5.3-1.8-5.9-4.6C0,59,0,58.5,0,58.2c0-16.4,0-32.7,0-49
	C0,6,2.5,3.5,5.9,3.5h4.9V1.7c0-1.3,0.4-1.7,1.7-1.7c0,0,25.6,0,26.2,0c1.1,0,1.6,0.4,1.6,1.5c0,0.5,0,1.9,0,1.9l2.3,0
	c1.8,0,3,0,3.5,0.1C49,4,51,6.3,51,9.2c0,6.5,0,32.7,0,32.7c0,5.4,0,10.7,0,16.1c0,1.8-0.6,3.2-1.8,4.4C48.1,63.5,46.7,64,44.9,64
	L44.9,64z M6.1,7.8c-1.2,0-1.7,0.5-1.7,1.6V58c0,1.2,0.5,1.6,1.7,1.6h38.5c1.6,0,2-0.4,2-1.9c0,0,0-45,0-48.4c0-1.1-0.5-1.6-1.6-1.6
	c-1.1,0-4.8,0-4.8,0c-0.2,0-0.2,0-0.3,0.2c-0.7,2-2.5,3.3-4.7,3.3c-3.4,0-6.8,0-10.1,0c-3.2,0-6.3,0-9.5,0c-2.2,0-4-1.2-4.7-3.3
	c-0.1-0.2-0.1-0.2-0.3-0.2L6.1,7.8z M15.2,4.6c0,1.5,1,2.4,2.5,2.4h15.6c1.5,0,2.4-0.9,2.5-2.3V4.4c0,0-0.1-0.1-0.3-0.1
	c-1.8,0-5.3,0-9,0c-4.4,0-9,0-11.1,0c-0.2,0-0.2,0-0.3,0L15.2,4.6z"/>
<path class="st0" d="M10.2,39.4c-0.4,0-0.8-0.2-1.1-0.6c-0.2-0.4-0.4-1,0.3-1.7l2.5-2.4l-2.5-2.4c-0.4-0.4-0.6-0.8-0.6-1.2
	c0-0.3,0.1-0.6,0.4-0.8c0.3-0.2,0.5-0.4,0.9-0.4c0.4,0,0.8,0.2,1.2,0.6l2.5,2.4l0.5-0.5c0.7-0.7,1.3-1.3,2-1.9
	c0.3-0.3,0.7-0.5,1.2-0.5c0.5,0,1,0.4,1.1,0.8c0.1,0.4,0,1-0.3,1.3c-0.5,0.6-1.1,1.1-1.7,1.7L16,34.4l-0.3,0.3l2.5,2.4
	c1,1,0.5,1.7,0.2,2c-0.2,0.2-0.5,0.4-0.9,0.4c-0.4,0-0.8-0.2-1.2-0.6l-2.5-2.4L13.3,37c-0.7,0.7-1.4,1.4-2,2
	C11,39.2,10.6,39.4,10.2,39.4z"/>
<path class="st0" d="M10.2,53.4c-0.3,0-0.6-0.1-0.9-0.4c-0.4-0.4-0.6-1.2,0.2-2l2.5-2.4l-2.3-2.2c-0.5-0.5-0.8-1-0.8-1.4
	c0-0.3,0.1-0.6,0.4-0.8c0.2-0.2,0.5-0.3,0.8-0.3c0.4,0,0.9,0.2,1.4,0.8l2.2,2.2c0,0,1.9-1.9,2.5-2.5c0.3-0.3,0.8-0.5,1.1-0.5
	c0.3,0,0.6,0.1,0.8,0.3c0.3,0.3,0.4,0.6,0.4,0.9c0,0.4-0.2,0.8-0.5,1.1c-0.6,0.6-2.5,2.4-2.5,2.4l0.5,0.5c0.7,0.7,1.4,1.3,2,2
	c0.3,0.3,0.5,0.7,0.5,1.2c0,0.4-0.4,1-0.9,1.1c-0.1,0-0.2,0-0.3,0c-0.4,0-0.8-0.1-1.1-0.4c-0.7-0.6-1.4-1.3-2.1-2l-0.6-0.6
	c0,0-1.1,1.2-1.5,1.6c-0.2,0.2-0.4,0.5-0.7,0.7l-0.2,0.2C11,53.3,10.6,53.4,10.2,53.4z"/>
<path class="st0" d="M24.9,53.5c-1,0-1.5-0.5-1.5-1.3c0-0.3,0.1-0.6,0.3-0.9c0.3-0.3,0.7-0.4,1.1-0.4h12.9c1.5,0,3.1,0,4.6,0
	c0.4,0,1,0.2,1.3,0.5c0.3,0.3,0.4,0.8,0.2,1.2c-0.2,0.5-0.7,0.8-1.3,0.8c-0.6,0-1.2,0-1.8,0H24.9z"/>
<path class="st0" d="M24.9,48c-1,0-1.5-0.5-1.5-1.3c0-0.3,0.1-0.6,0.3-0.9c0.3-0.3,0.7-0.4,1.1-0.4h12.9c1.5,0,3.1,0,4.6,0
	c0.4,0,1,0.2,1.3,0.5c0.3,0.3,0.4,0.8,0.2,1.2c-0.2,0.5-0.7,0.8-1.3,0.8c-0.6,0-1.2,0-1.8,0H24.9z"/>
<path class="st0" d="M24.8,33.9c-1,0-1.5-0.5-1.5-1.3c0-0.3,0.1-0.6,0.3-0.9c0.3-0.3,0.7-0.4,1.1-0.4h12.9c1.5,0,3.1,0,4.6,0
	c0.4,0,1,0.2,1.3,0.5c0.3,0.3,0.4,0.8,0.2,1.2c-0.2,0.5-0.7,0.8-1.3,0.8c-0.6,0-1.2,0-1.8,0H24.8z"/>
<path class="st0" d="M24.8,19.9c-1,0-1.5-0.5-1.5-1.3c0-0.3,0.1-0.6,0.3-0.9c0.3-0.3,0.7-0.4,1.1-0.4h12.9c1.5,0,3.1,0,4.6,0
	c0.4,0,1,0.2,1.3,0.5c0.3,0.3,0.4,0.8,0.2,1.2c-0.2,0.5-0.7,0.8-1.3,0.8c-0.6,0-1.2,0-1.8,0H24.8z"/>
<path class="st0" d="M12.1,25.4c-0.4,0-0.8-0.3-1.2-0.7c0,0-2.3-2.2-3.1-3.1C7.1,21,7,20.3,7.5,19.7c0.3-0.3,0.6-0.4,0.9-0.4
	c0.4,0,0.8,0.2,1.1,0.6c0.6,0.6,2.5,2.4,2.5,2.4l5.9-5.8c0.3-0.3,0.5-0.5,0.8-0.6c0.2-0.1,0.4,0,0.6,0c0.4,0,0.7,0.1,0.9,0.2
	c0.3,0.3,0.3,0.7,0.3,1.1c0,0.3-0.3,0.7-0.4,0.8l-6.7,6.6C12.9,25.1,12.5,25.4,12.1,25.4z"/>
<path class="st0" d="M24.9,39.4c-1.2,0-1.6-0.7-1.6-1.3c0-0.8,0.6-1.3,1.6-1.3h12c0.7,0,1.1,0.2,1.3,0.5c0.2,0.2,0.3,0.5,0.3,0.9
	c0,0.4-0.3,1.2-1.5,1.2H24.9z"/>
<path class="st0" d="M24.9,25.4c-0.5,0-1-0.2-1.3-0.5c-0.2-0.2-0.3-0.5-0.3-0.9c0-0.8,0.6-1.2,1.6-1.2h8.5c0.6,0,1,0.2,1.3,0.6
	c0.2,0.3,0.3,0.7,0.1,1.1c-0.1,0.4-0.5,0.9-1.4,0.9L24.9,25.4z"/>
</svg>
