<svg width="55" height="55" viewBox="0 0 50 68" fill="none" xmlns="http://www.w3.org/2000/svg">
<path d="M4.31166 15.6442C4.31166 16.7388 4.31166 17.4749 4.31166 18.211C4.31166 29.9882 4.31166 41.7843 4.31166 53.5615C4.31166 56.6568 4.33067 56.6756 7.5252 56.6756C14.1424 56.6756 20.7597 56.6756 27.6811 56.6756C27.4149 58.2044 27.1677 59.5633 26.9205 60.96C19.3145 60.96 11.9557 61.0166 4.57787 60.9411C1.66857 60.9034 0.0522913 59.2425 0.0522913 56.3548C-0.00475374 42.8412 -0.0427838 29.3087 0.0903213 15.7951C0.0903213 14.4551 0.869937 12.832 1.80167 11.8128C5.05324 8.32115 8.43792 4.94276 11.9747 1.73422C12.9825 0.809412 14.6368 0.111084 16.0059 0.0922098C25.6655 -0.0399063 35.3252 -0.00215879 45.0038 0.0355887C48.4075 0.0544624 49.9857 1.65873 49.9857 5.11262C50.0048 22.0235 50.0048 38.9532 49.9857 55.8641C49.9857 59.6766 48.1032 61.1676 43.6728 60.8467C43.4256 59.6011 43.1593 58.3177 42.8551 56.8266C45.6313 57.0154 45.7264 55.3734 45.7264 53.3539C45.6693 38.0284 45.7074 22.6841 45.6883 7.3586C45.6883 4.37655 45.6123 4.31992 42.6079 4.30105C33.7849 4.30105 24.962 4.30105 15.7397 4.30105C15.7397 6.37716 15.7587 8.30228 15.7397 10.2274C15.7017 14.0776 14.1995 15.5875 10.3394 15.6253C8.47595 15.663 6.57444 15.6442 4.31166 15.6442Z" fill="#7BBE4D"/>
<path d="M40.5543 67.9432C37.2266 65.6973 33.5377 65.8105 29.8488 67.981C29.7537 68.0376 29.6206 67.9621 29.6396 67.83C30.3812 63.791 31.0467 60.4315 31.5411 57.072C31.6742 56.1471 31.4461 55.1846 30.9136 54.4108C29.2023 51.8628 29.3164 48.8808 31.408 46.899C33.5567 44.8607 37.4168 45.0117 39.4134 47.201C41.2198 49.1827 41.2578 52.0327 39.5845 54.4296C39.0521 55.2035 38.8429 56.1283 38.976 57.0531C39.4324 60.1295 40.4972 66.3767 40.7634 67.83C40.8015 67.9432 40.6683 67.9999 40.5543 67.9432Z" fill="#7BBE4D"/>
<path d="M10.6438 22.4387C9.71208 22.401 9.2367 21.9669 9.19867 21.2497C9.17966 20.9288 9.27473 20.6457 9.4839 20.4193C9.73109 20.155 10.1114 20.004 10.5297 20.004C10.5297 20.004 37.8923 20.004 39.3375 20.0229C39.7368 20.0229 40.2882 20.1928 40.5925 20.5325C40.8777 20.8533 40.9347 21.2874 40.7636 21.6649C40.5544 22.1179 40.0791 22.401 39.5086 22.4199C38.9572 22.4387 10.6438 22.4387 10.6438 22.4387Z" fill="#7BBE4D"/>
<path d="M26.6165 13.7568C25.6848 13.7191 25.2094 13.285 25.1714 12.5678C25.1523 12.2469 25.2474 11.9638 25.4566 11.7374C25.7038 11.4731 26.0841 11.3221 26.5024 11.3221C26.5024 11.3221 34.85 11.3221 36.2951 11.341C36.6945 11.341 37.2459 11.5109 37.5501 11.8506C37.8354 12.1715 37.8924 12.6055 37.7213 12.983C37.5121 13.436 37.0367 13.7191 36.4663 13.738C35.8958 13.7568 26.6165 13.7568 26.6165 13.7568Z" fill="#7BBE4D"/>
<path d="M10.6438 49.8434C9.71208 49.8057 9.2367 49.3716 9.19867 48.6544C9.17966 48.3335 9.27473 48.0504 9.4839 47.8239C9.73109 47.5597 10.1114 47.4087 10.5297 47.4087C10.5297 47.4087 22.6803 47.4087 24.1255 47.4276C24.5248 47.4276 25.0762 47.5974 25.3805 47.9372C25.6657 48.258 25.7227 48.6921 25.5516 49.0696C25.3424 49.5225 24.8671 49.8057 24.2966 49.8245C23.7452 49.8434 10.6438 49.8434 10.6438 49.8434Z" fill="#7BBE4D"/>
<path d="M10.6438 27.176C9.71208 27.1383 9.2367 26.7042 9.19867 25.987C9.17966 25.6661 9.27473 25.383 9.4839 25.1566C9.73109 24.8923 10.1114 24.7413 10.5297 24.7413C10.5297 24.7413 37.8923 24.7413 39.3375 24.7602C39.7368 24.7602 40.2882 24.9301 40.5925 25.2698C40.8777 25.5906 40.9347 26.0247 40.7636 26.4022C40.5544 26.8552 40.0791 27.1383 39.5086 27.1572C38.9572 27.176 10.6438 27.176 10.6438 27.176Z" fill="#7BBE4D"/>
<path d="M10.6438 31.7058C9.71208 31.668 9.2367 31.2339 9.19867 30.5167C9.17966 30.1959 9.27473 29.9128 9.4839 29.6863C9.73109 29.4221 10.1114 29.2711 10.5297 29.2711C10.5297 29.2711 37.8923 29.2711 39.3375 29.2899C39.7368 29.2899 40.2882 29.4598 40.5925 29.7995C40.8777 30.1204 40.9347 30.5545 40.7636 30.9319C40.5544 31.3849 40.0791 31.668 39.5086 31.6869C38.9572 31.7058 10.6438 31.7058 10.6438 31.7058Z" fill="#7BBE4D"/>
<path d="M10.6438 36.1788C9.71208 36.1411 9.2367 35.707 9.19867 34.9898C9.17966 34.6689 9.27473 34.3858 9.4839 34.1594C9.73109 33.8951 10.1114 33.7441 10.5297 33.7441C10.5297 33.7441 37.8923 33.7441 39.3375 33.763C39.7368 33.763 40.2882 33.9329 40.5925 34.2726C40.8777 34.5934 40.9347 35.0275 40.7636 35.405C40.5544 35.858 40.0791 36.1411 39.5086 36.16C38.9572 36.1788 10.6438 36.1788 10.6438 36.1788Z" fill="#7BBE4D"/>
<path d="M10.6438 40.7084C9.71208 40.6707 9.2367 40.2366 9.19867 39.5194C9.17966 39.1985 9.27473 38.9154 9.4839 38.6889C9.73109 38.4247 10.1114 38.2737 10.5297 38.2737C10.5297 38.2737 37.8923 38.2737 39.3375 38.2926C39.7368 38.2926 40.2882 38.4624 40.5925 38.8022C40.8777 39.123 40.9347 39.5571 40.7636 39.9346C40.5544 40.3876 40.0791 40.6707 39.5086 40.6895C38.9572 40.7084 10.6438 40.7084 10.6438 40.7084Z" fill="#7BBE4D"/>
</svg>
