<?xml version="1.0" encoding="utf-8"?>
<!-- Generator: Adobe Illustrator 23.0.1, SVG Export Plug-In . SVG Version: 6.00 Build 0)  -->
<svg width="55" height="55" version="1.1" id="Layer_1" xmlns="http://www.w3.org/2000/svg" xmlns:xlink="http://www.w3.org/1999/xlink" x="0px" y="0px"
	 viewBox="0 0 70 63" style="enable-background:new 0 0 70 63;" xml:space="preserve">
<style type="text/css">
	.st0{fill:#7BBE4D;}
</style>
<path class="st0" d="M45.3,22c0-5.3,0-10.3,0-15.2c0-1.5-0.2-2.5-2.1-2.5c-8.8,0-27.1,0-27.7,0c0,2,0,4.3,0,6.3
	c-0.1,3.4-1.6,4.9-5,5c-2,0-4,0-6.3,0c0,0.8,0,1.6,0,2.3c0,12.6,0,25.3,0,37.9c0,2.9,0.1,2.9,2.9,2.9c11.8,0,23.6-0.1,35.3,0
	c2.2,0,3-0.7,2.8-2.9c0-2.3,0.1-4.5,0-6.8c0-3.7,1.1-5.9,4.2-8c0,2.3,0.1,13.7,0,17.2c-0.1,3-1.6,4.6-4.6,4.7
	C31.6,63,18.2,63,4.8,63c-3.3,0-4.8-1.7-4.8-5C0,44,0,30,0.1,16c0-1.5,0.8-3.2,1.8-4.4C5,8.3,8.3,5,11.7,1.9c1.1-1,2.9-1.8,4.4-1.8
	C25.6-0.1,35.1,0,44.6,0c3.4,0,5,1.6,5,5c0,2.9,0,5.9,0,8.8C49.6,18.6,49.6,18.6,45.3,22z"/>
<path class="st0" d="M64.3,21.1c0.6,0.8,1.4,1.6,1.8,2c0.5-0.5,0.3-0.3,0.4-0.4c0.5-0.4,1.8-2.2,3-1c1.3,1.4-0.2,2.3-1.1,3.1
	c-4.1,3.8-8.2,7.6-12.3,11.3c-0.8,0.7-2.2,1.9-2.5,1.7c-0.3-0.1-0.4-0.2-0.6-0.3c-0.7-0.6,0.6-1.7,1.2-2.3c3.3-3.3,6.6-6.6,10.1-10
	c-0.7-0.7-1.2-1.3-1.9-2.1C56.5,29,50.9,34.8,45.1,40.7c-2.3-2.5-4.1-4.5-6.2-6.7c0.3-0.3,0.8-0.9,1.4-1.5
	c6.5-6.4,12.9-12.9,19.4-19.3c2.2-2.2,5-2.4,6.8-0.6c1.9,1.9,1.7,4.5-0.5,6.8C65.4,19.9,64.9,20.4,64.3,21.1z"/>
<path class="st0" d="M21.2,51.9l-2.9,1.4c-0.5,0.2-1,0-1.2-0.5c-0.3-1.2-0.7-2.4-0.8-3.6c-0.3-1.9-0.3-3.9-0.4-5.8
	c0-0.3-0.5-0.4-0.6-0.2c-0.5,0.8-0.9,1.7-1.1,2.6c-0.3,1.5-1,3.1-0.7,4.7c0.1,0.5,0.1,1.1-1.1,1c-0.6-0.1-0.9-0.7-0.8-1
	c0.5-2.7,1-5.4,1.9-8c0.3-0.8,1.8-1.6,2.7-1.5c0.6,0.1,1.5,1.3,1.6,2.2c0.4,2.6,0.6,5,0.8,7.6c0.2,0.4,0.3,0.5,0.5,0.7
	c0.1,0.2,0.1-0.8,0.3-1.1c1.8-2.5,2.4-2.4,4.1,0.2c0.5,0.7,1.3,1.2,2.3,2.2c1.4-7,5.7-11.4,10.1-15.7c0.3-0.3,0.9-0.3,1.2,0l4.9,5.1
	c0.3,0.3,0.3,0.9,0,1.2c-4,3.8-8.1,7.8-14,9.6c-2.8,0.9-4.4,0.6-5.6-0.8C21.9,51.8,21.5,51.7,21.2,51.9z"/>
<path class="st0" d="M23.8,12.5c-0.9,0-1.4-0.5-1.4-1.2c0-0.3,0.1-0.6,0.3-0.8c0.2-0.3,0.6-0.4,1-0.4c0,0,12.1,0,13.5,0
	c0.4,0,0.9,0.2,1.2,0.5c0.3,0.3,0.3,0.8,0.2,1.1c-0.2,0.5-0.7,0.7-1.2,0.8S23.8,12.5,23.8,12.5z"/>
<path class="st0" d="M12.8,26.6c-0.9,0-1.4-0.5-1.4-1.2c0-0.3,0.1-0.6,0.3-0.8c0.2-0.3,0.6-0.4,1-0.4c0,0,21.5,0,22.9,0
	c0.4,0,0.9,0.2,1.2,0.5c0.3,0.3,0.3,0.8,0.2,1.1c-0.2,0.5-0.7,0.7-1.2,0.8C35.2,26.6,12.8,26.6,12.8,26.6z"/>
<path class="st0" d="M12.8,31.5c-0.9,0-1.4-0.5-1.4-1.2c0-0.3,0.1-0.6,0.3-0.8c0.2-0.3,0.6-0.4,1-0.4c0,0,21.5,0,22.9,0
	c0.4,0,0.9,0.2,1.2,0.5c0.3,0.3,0.3,0.8,0.2,1.1c-0.2,0.5-0.7,0.7-1.2,0.8C35.2,31.5,12.8,31.5,12.8,31.5z"/>
<path class="st0" d="M12.8,36.4c-0.9,0-1.4-0.5-1.4-1.2c0-0.3,0.1-0.6,0.3-0.8c0.2-0.3,0.6-0.4,1-0.4c0,0,15.8,0,17.3,0
	c0.4,0,0.9,0.2,1.2,0.5c0.3,0.3,0.3,0.8,0.2,1.1c-0.2,0.5-0.7,0.7-1.2,0.8C29.6,36.4,12.8,36.4,12.8,36.4z"/>
</svg>
